<svg width="20" height="22" viewBox="0 0 20 22" fill="none" xmlns="http://www.w3.org/2000/svg">
<path d="M6.75 15.0009C6.75 14.5866 6.41421 14.2509 6 14.2509C5.58579 14.2509 5.25 14.5866 5.25 15.0009H6.75ZM6.87868 20.1222L6.34835 20.6525L6.34835 20.6525L6.87868 20.1222ZM5.25 7.00085C5.25 7.41507 5.58579 7.75085 6 7.75085C6.41421 7.75085 6.75 7.41507 6.75 7.00085H5.25ZM9.97741 21.7332C10.3914 21.7457 10.7372 21.4201 10.7497 21.0061C10.7621 20.5921 10.4366 20.2463 10.0226 20.2339L9.97741 21.7332ZM13.9958 20.2491C13.5816 20.2514 13.2477 20.5891 13.25 21.0033C13.2523 21.4175 13.59 21.7514 14.0042 21.7491L13.9958 20.2491ZM1.75 8.50085C1.75 8.08664 1.41421 7.75085 1 7.75085C0.585786 7.75085 0.25 8.08664 0.25 8.50085H1.75ZM6 19.2509C6.41421 19.2509 6.75 18.9151 6.75 18.5009C6.75 18.0866 6.41421 17.7509 6 17.7509V19.2509ZM6 4.25085C6.41421 4.25085 6.75 3.91507 6.75 3.50085C6.75 3.08664 6.41421 2.75085 6 2.75085V4.25085ZM1.2019 3.70276C0.90901 3.99565 0.90901 4.47052 1.2019 4.76342C1.4948 5.05631 1.96967 5.05631 2.26256 4.76342L1.2019 3.70276ZM4 10.2509C3.58579 10.2509 3.25 10.5866 3.25 11.0009C3.25 11.4151 3.58579 11.7509 4 11.7509V10.2509ZM13 11.0009L13.5303 11.5312C13.8232 11.2383 13.8232 10.7634 13.5303 10.4705L13 11.0009ZM9.96967 12.9705C9.67678 13.2634 9.67678 13.7383 9.96967 14.0312C10.2626 14.3241 10.7374 14.3241 11.0303 14.0312L9.96967 12.9705ZM11.0303 7.97052C10.7374 7.67763 10.2626 7.67763 9.96967 7.97052C9.67678 8.26342 9.67678 8.73829 9.96967 9.03118L11.0303 7.97052ZM12 1.75085H13V0.250854H12V1.75085ZM5.25 15.0009C5.25 16.3939 5.24841 17.5141 5.36652 18.3926C5.48754 19.2927 5.74643 20.0506 6.34835 20.6525L7.40901 19.5918C7.13225 19.3151 6.9518 18.9265 6.85315 18.1927C6.75159 17.4374 6.75 16.4363 6.75 15.0009H5.25ZM18.25 15.0009C18.25 16.4363 18.2484 17.4374 18.1469 18.1927C18.0482 18.9265 17.8678 19.3151 17.591 19.5918L18.6517 20.6525C19.2536 20.0506 19.5125 19.2927 19.6335 18.3926C19.7516 17.5141 19.75 16.3939 19.75 15.0009H18.25ZM13 1.75085C14.4354 1.75085 15.4365 1.75245 16.1919 1.854C16.9257 1.95266 17.3142 2.1331 17.591 2.40986L18.6517 1.3492C18.0497 0.747287 17.2919 0.488394 16.3918 0.367377C15.5132 0.249262 14.393 0.250854 13 0.250854V1.75085ZM19.75 7.00085C19.75 5.60784 19.7516 4.48764 19.6335 3.6091C19.5125 2.709 19.2536 1.95112 18.6517 1.3492L17.591 2.40986C17.8678 2.68663 18.0482 3.0752 18.1469 3.80897C18.2484 4.56433 18.25 5.56544 18.25 7.00085H19.75ZM12 0.250854C10.607 0.250854 9.48678 0.249262 8.60825 0.367377C7.70814 0.488394 6.95027 0.747287 6.34835 1.3492L7.40901 2.40986C7.68577 2.1331 8.07434 1.95266 8.80812 1.854C9.56347 1.75245 10.5646 1.75085 12 1.75085V0.250854ZM6.75 7.00085C6.75 5.56544 6.75159 4.56433 6.85315 3.80897C6.9518 3.0752 7.13225 2.68663 7.40901 2.40986L6.34835 1.3492C5.74643 1.95112 5.48754 2.709 5.36652 3.6091C5.24841 4.48764 5.25 5.60784 5.25 7.00085H6.75ZM10.0226 20.2339C8.4579 20.1867 7.8196 20.0024 7.40901 19.5918L6.34835 20.6525C7.22037 21.5245 8.43521 21.6867 9.97741 21.7332L10.0226 20.2339ZM14.0042 21.7491C15.0857 21.7431 15.9871 21.7172 16.7236 21.5819C17.4816 21.4427 18.1267 21.1774 18.6517 20.6525L17.591 19.5918C17.3475 19.8353 17.0195 20.0025 16.4527 20.1066C15.8644 20.2146 15.0893 20.243 13.9958 20.2491L14.0042 21.7491ZM0.25 8.50085V13.5009H1.75V8.50085H0.25ZM0.25 13.5009C0.25 14.6582 0.248407 15.6016 0.348217 16.344C0.450928 17.1079 0.67321 17.7703 1.2019 18.299L2.26256 17.2383C2.05902 17.0348 1.91519 16.7417 1.83484 16.1441C1.75159 15.5249 1.75 14.7006 1.75 13.5009H0.25ZM6 17.7509C4.80029 17.7509 3.97595 17.7493 3.35676 17.666C2.75914 17.5857 2.4661 17.4418 2.26256 17.2383L1.2019 18.299C1.7306 18.8276 2.39293 19.0499 3.15688 19.1526C3.89926 19.2524 4.84269 19.2509 6 19.2509V17.7509ZM6 2.75085C4.84269 2.75085 3.89926 2.74926 3.15688 2.84907C2.39293 2.95178 1.7306 3.17406 1.2019 3.70276L2.26256 4.76342C2.4661 4.55988 2.75914 4.41604 3.35676 4.3357C3.97595 4.25245 4.80029 4.25085 6 4.25085V2.75085ZM4 11.7509H13V10.2509H4V11.7509ZM12.4697 10.4705L9.96967 12.9705L11.0303 14.0312L13.5303 11.5312L12.4697 10.4705ZM13.5303 10.4705L11.0303 7.97052L9.96967 9.03118L12.4697 11.5312L13.5303 10.4705ZM18.25 7.00085V15.0009H19.75V7.00085H18.25Z" fill="#9BA5B7"/>
</svg>
